<?xml version="1.0" encoding="iso-8859-1"?>
<!-- Generator: Adobe Illustrator 19.0.0, SVG Export Plug-In . SVG Version: 6.00 Build 0)  -->
<svg version="1.1" id="Layer_1" xmlns="http://www.w3.org/2000/svg" xmlns:xlink="http://www.w3.org/1999/xlink" x="0px" y="0px"
	 viewBox="0 0 392.581 392.581" style="enable-background:new 0 0 392.581 392.581;" xml:space="preserve">
<path style="fill:#FFC10D;" d="M49.542,281.988h293.624V79.127H49.542V281.988z"/>
<g>
	<path style="fill:#194F82;" d="M381.761,0H10.949C4.936,0,0.023,4.848,0.023,10.925v57.341c0,6.012,4.848,10.925,10.925,10.925
		h16.743v213.721c0,6.012,4.848,10.925,10.925,10.925h53.851l-18.036,75.313c-1.422,5.883,2.263,11.766,8.016,13.123
		c5.883,1.422,11.766-2.263,13.123-8.016l19.329-80.485h162.844l19.265,80.42c1.422,5.883,7.24,9.438,13.123,8.016
		c5.883-1.422,9.503-7.24,8.016-13.123l-18.036-75.313h53.85c6.012,0,10.925-4.848,10.925-10.925V79.127h16.743
		c6.012,0,10.925-4.848,10.925-10.925V10.861C392.621,4.848,387.773,0,381.761,0z M370.835,57.341H21.874V21.786h348.962
		L370.835,57.341L370.835,57.341z M343.167,281.988H49.542V79.127h293.624L343.167,281.988L343.167,281.988z"/>
	<path style="fill:#194F82;" d="M117.227,222.448c-8.598,0-15.515-6.982-15.515-15.515c0-6.012-4.848-10.925-10.925-10.925
		c-6.012,0-10.925,4.848-10.925,10.925c0,16.743,11.119,31.095,26.44,35.685v6.723c0,6.012,4.848,10.925,10.925,10.925
		c6.077,0,10.925-4.848,10.925-10.925v-6.723c15.321-4.719,26.44-18.941,26.44-35.685c0-20.622-18.166-37.236-38.788-37.236
		c0.323-0.065,0,0-0.065,0c-7.887-0.776-14.093-7.434-14.093-15.451c0-8.598,6.982-15.515,15.515-15.515s15.515,6.982,15.515,15.515
		c0,6.012,4.848,10.925,10.925,10.925s10.925-4.848,10.925-10.925c0-16.743-11.119-31.095-26.44-35.685v-6.788
		c0-6.012-4.848-10.925-10.925-10.925c-6.077,0-10.925,4.848-10.925,10.925v6.788c-15.257,4.655-26.44,18.877-26.44,35.685
		c0,20.622,16.743,37.301,37.301,37.301c-0.323,0.065,0,0,0.065,0c7.887,0.776,15.451,7.37,15.451,15.386
		C132.742,215.531,125.825,222.448,117.227,222.448z"/>
</g>
<g>
	<rect x="21.874" y="21.786" style="fill:#56ACE0;" width="348.962" height="35.491"/>
	<path style="fill:#56ACE0;" d="M207.862,202.085l35.362-27.927l11.895-43.507c-0.776,0-1.552-0.129-2.392-0.129
		c-27.604,0-49.972,22.432-49.972,49.972C202.819,188.251,204.694,195.556,207.862,202.085z"/>
</g>
<g>
	<path style="fill:#FFFFFF;" d="M299.595,198.012c2.069-5.495,3.232-11.378,3.232-17.519c0-19.071-10.731-35.685-26.57-44.154
		l-10.796,39.305L299.595,198.012z"/>
	<path style="fill:#FFFFFF;" d="M221.308,219.216c8.598,7.046,19.523,11.184,31.547,11.184c13.511,0,25.794-5.43,34.78-14.158
		l-34.263-22.432L221.308,219.216z"/>
</g>
<path style="fill:#194F82;" d="M252.856,252.315c39.564,0,71.758-32.194,71.758-71.758S292.419,108.8,252.856,108.8
	s-71.758,32.194-71.758,71.758S213.292,252.315,252.856,252.315z M252.856,130.586c0.776,0,1.552,0.065,2.392,0.129l-11.895,43.507
	l-35.362,27.927c-3.168-6.594-4.913-13.834-4.913-21.527C202.819,153.018,225.316,130.586,252.856,130.586z M302.827,180.493
	c0,6.206-1.164,12.024-3.232,17.519l-34.069-22.303l10.796-39.305C292.031,144.808,302.827,161.422,302.827,180.493z
	 M252.856,230.529c-11.96,0-22.885-4.267-31.547-11.184l32.129-25.341l34.263,22.432
	C278.65,225.099,266.367,230.529,252.856,230.529z"/>
<g>
</g>
<g>
</g>
<g>
</g>
<g>
</g>
<g>
</g>
<g>
</g>
<g>
</g>
<g>
</g>
<g>
</g>
<g>
</g>
<g>
</g>
<g>
</g>
<g>
</g>
<g>
</g>
<g>
</g>
</svg>
