<?xml version="1.0" encoding="iso-8859-1"?>
<!-- Generator: Adobe Illustrator 19.0.0, SVG Export Plug-In . SVG Version: 6.00 Build 0)  -->
<svg version="1.1" id="Layer_1" xmlns="http://www.w3.org/2000/svg" xmlns:xlink="http://www.w3.org/1999/xlink" x="0px" y="0px"
	 viewBox="0 0 392.663 392.663" style="enable-background:new 0 0 392.663 392.663;" xml:space="preserve">
<path style="fill:#194F82;" d="M392.566,32.711C392.566,14.675,377.891,0,359.855,0H32.743C14.707,0,0.032,14.675,0.032,32.711
	v197.754c0,18.036,14.675,32.711,32.711,32.711h160.776c-2.521,8.857-4.008,18.23-4.008,27.927
	c0,55.919,45.511,101.56,101.56,101.56c55.919,0,101.56-45.511,101.56-101.56c0-13.899-2.844-27.216-7.952-39.305
	c5.042-5.883,7.952-13.317,7.952-21.333V32.711H392.566z M291.006,370.747c-43.96,0-79.644-35.749-79.644-79.644
	c0-43.96,35.749-79.644,79.644-79.644c43.96,0,79.644,35.749,79.644,79.644C370.78,334.998,335.03,370.747,291.006,370.747z
	 M370.78,228.331c-18.618-23.661-47.386-38.853-79.644-38.853c-37.947,0-70.982,20.945-88.372,51.846H32.743
	c-6.012,0-10.925-4.848-10.925-10.925V121.018H370.78L370.78,228.331L370.78,228.331z M370.78,99.232H21.818v-28.38H370.78
	L370.78,99.232L370.78,99.232z M370.78,49.067H21.818V32.711c0-6.012,4.848-10.925,10.925-10.925h327.111
	c6.012,0,10.925,4.848,10.925,10.925V49.067L370.78,49.067z"/>
<g>
	<path style="fill:#FFC10D;" d="M370.78,32.711c0-6.012-4.848-10.925-10.925-10.925H32.743c-6.012,0-10.925,4.848-10.925,10.925
		v16.356H370.78L370.78,32.711L370.78,32.711z"/>
	<path style="fill:#FFC10D;" d="M291.006,189.543c32.323,0,61.091,15.192,79.644,38.853V121.018H21.818v109.446
		c0,6.012,4.848,10.925,10.925,10.925h169.891C220.089,210.489,253.188,189.543,291.006,189.543z"/>
</g>
<g>
	<path style="fill:#56ACE0;" d="M291.006,211.329c-43.96,0-79.644,35.749-79.644,79.644c0,43.96,35.749,79.644,79.644,79.644
		c43.96,0,79.644-35.749,79.644-79.644C370.78,247.143,335.03,211.329,291.006,211.329z"/>
	<rect x="21.818" y="70.853" style="fill:#56ACE0;" width="348.962" height="28.251"/>
</g>
<g>
	<path style="fill:#194F82;" d="M56.21,213.269h18.877c6.012,0,10.925-4.848,10.925-10.925c0-6.012-4.848-10.925-10.925-10.925
		H56.21c-6.012,0-10.925,4.848-10.925,10.925S50.198,213.269,56.21,213.269z"/>
	<path style="fill:#194F82;" d="M56.21,165.107h84.299c6.012,0,10.925-4.848,10.925-10.925c0-6.012-4.848-10.925-10.925-10.925
		H56.21c-6.012,0-10.925,4.848-10.925,10.925C45.285,160.259,50.198,165.107,56.21,165.107z"/>
	<path style="fill:#194F82;" d="M138.117,191.483H119.24c-6.012,0-10.925,4.848-10.925,10.925s4.848,10.925,10.925,10.925h18.877
		c6.012,0,10.925-4.848,10.925-10.925C148.978,196.331,144.129,191.483,138.117,191.483z"/>
	<path style="fill:#194F82;" d="M182.335,213.269h18.877c6.012,0,10.925-4.848,10.925-10.925c0-6.012-4.848-10.925-10.925-10.925
		h-18.877c-6.012,0-10.925,4.848-10.925,10.925S176.259,213.269,182.335,213.269z"/>
	<path style="fill:#194F82;" d="M335.548,280.113h-88.954c-6.012,0-10.925,4.848-10.925,10.925c0,6.012,4.848,10.925,10.925,10.925
		h88.954c6.012,0,10.925-4.848,10.925-10.925C346.408,284.962,341.56,280.113,335.548,280.113z"/>
</g>
<g>
</g>
<g>
</g>
<g>
</g>
<g>
</g>
<g>
</g>
<g>
</g>
<g>
</g>
<g>
</g>
<g>
</g>
<g>
</g>
<g>
</g>
<g>
</g>
<g>
</g>
<g>
</g>
<g>
</g>
</svg>
